<svg id="visual" viewBox="0 0 900 600" width="900" height="600" xmlns="http://www.w3.org/2000/svg" xmlns:xlink="http://www.w3.org/1999/xlink" version="1.1"><path d="M657 600L649.2 585.7C641.3 571.3 625.7 542.7 618.5 514.2C611.3 485.7 612.7 457.3 628.3 428.8C644 400.3 674 371.7 681.8 343C689.7 314.3 675.3 285.7 682.3 257C689.3 228.3 717.7 199.7 731.7 171.2C745.7 142.7 745.3 114.3 733 85.8C720.7 57.3 696.3 28.7 684.2 14.3L672 0L900 0L900 14.3C900 28.7 900 57.3 900 85.8C900 114.3 900 142.7 900 171.2C900 199.7 900 228.3 900 257C900 285.7 900 314.3 900 343C900 371.7 900 400.3 900 428.8C900 457.3 900 485.7 900 514.2C900 542.7 900 571.3 900 585.7L900 600Z" fill="#ff5656" stroke-linecap="round" stroke-linejoin="miter"></path></svg>