<svg id="visual" viewBox="0 0 900 600" width="900" height="600" xmlns="http://www.w3.org/2000/svg" xmlns:xlink="http://www.w3.org/1999/xlink" version="1.1"><path d="M0 162L21.5 167.2C43 172.3 86 182.7 128.8 187.3C171.7 192 214.3 191 257.2 180.5C300 170 343 150 385.8 144.8C428.7 139.7 471.3 149.3 514.2 144.7C557 140 600 121 642.8 111.7C685.7 102.3 728.3 102.7 771.2 111C814 119.3 857 135.7 878.5 143.8L900 152L900 0L878.5 0C857 0 814 0 771.2 0C728.3 0 685.7 0 642.8 0C600 0 557 0 514.2 0C471.3 0 428.7 0 385.8 0C343 0 300 0 257.2 0C214.3 0 171.7 0 128.8 0C86 0 43 0 21.5 0L0 0Z" fill="#ff5656" stroke-linecap="round" stroke-linejoin="miter"></path></svg>